<svg xmlns="http://www.w3.org/2000/svg" viewBox="3.37 3.63 17.24 16.76">
  <defs>
    <path id="en-base"
      d="M20.58 19.37l-2.99 -8.36c-0.21 -0.55 -0.68 -0.89 -1.22 -0.89s-1 0.34 -1.23 0.91l-2.98 8.34a0.75 0.75 0 1 0 1.41 0.51l0.62 -1.73h4.35l0.62 1.73c0.11 0.31 0.4 0.5 0.71 0.5c0.08 0 0.17 -0.01 0.25 -0.04a0.75 0.75 0 0 0 0.45 -0.96z">
    </path>
    <path id="en-inner" d="M14.74 16.64l1.64 -4.59l1.64 4.59h-3.28z"></path>
    <mask id="en-mask">
      <use href="#en-base" fill="white" />
      <use href="#en-inner" fill="black" />
    </mask>
  </defs>
  <use class="en-icon" href="#en-base" fill="currentColor" mask="url(#en-mask)" />
  <path class="ja-icon" fill="currentColor"
    d="M12.18 7.86h0.94c0.41 0 0.75 -0.34 0.75 -0.75s-0.34 -0.75 -0.75 -0.75h-3.75v-1.98c0 -0.41 -0.34 -0.75 -0.75 -0.75s-0.75 0.34 -0.75 0.75v1.98h-3.75c-0.41 0 -0.75 0.34 -0.75 0.75s0.34 0.75 0.75 0.75h6.29c-1.93 2.9 -3.65 4.65 -5.75 5.87a0.738 0.738 0 0 0 -0.27 1.02a0.746 0.746 0 0 0 1.02 0.27c2.48 -1.44 4.52 -3.6 6.78 -7.17z">
  </path>
  <path class="ja-icon" fill="currentColor"
    d="M12.23 15.12a0.752 0.752 0 0 0 0.38 -1.4c-0.6 -0.35 -1.19 -0.73 -1.73 -1.14a0.75 0.75 0 0 0 -0.9 1.2c0.59 0.44 1.22 0.86 1.87 1.24c0.12 0.07 0.25 0.1 0.38 0.1z">
  </path>
</svg>