<svg xmlns="http://www.w3.org/2000/svg" width="1em" height="1em" viewBox="0 0 24 24">
  <g fill="none" stroke="currentColor" stroke-linecap="round" stroke-linejoin="round" stroke-width="1.5"
    color="currentColor">
    <path
      d="M10 13.229q.213.349.504.654a3.56 3.56 0 0 0 4.454.59q.391-.24.73-.59l3.239-3.372c1.43-1.49 1.43-3.904 0-5.394a3.564 3.564 0 0 0-5.183 0l-.714.743" />
    <path
      d="m10.97 18.14l-.713.743a3.564 3.564 0 0 1-5.184 0c-1.43-1.49-1.43-3.905 0-5.394l3.24-3.372a3.564 3.564 0 0 1 5.183 0q.291.305.504.654M21 16h-2.079M16 21v-2.079M3 8h2.079M8 3v2.079" />
  </g>
</svg>